/* XPM */
static char *_b4f44553af04109c95015804dcfca89VGyPqT8gJR5Yjui5[] = {
/* columns rows colors chars-per-pixel */
"32 32 13 1 ",
"  c black",
". c #3A231F",
"X c #493026",
"o c #55332B",
"O c #5E3A31",
"+ c #5F3D31",
"@ c #4F401F",
"# c #764A1B",
"$ c #6D4034",
"% c #734136",
"& c #76433F",
"* c #B58100",
"= c #E3D6AE",
/* pixels */
"%%%%%%%%%%%%%%%%%%%%%%%%%%%%%%%%",
"%%%%%%%%%%%%%%%%%%%%%%%%%%%%%%%%",
"%%%%%%%%%%%%%%%%%%%%%%%%%%%%%%%%",
"%%%%%%%%%%%++++++++%%%%%%$$$%%%%",
"%%%$$$%%%%%++++++++%%%%%$$$$%%%%",
"%%%$$$$%%%%++++++++%%%%%$$$$%%%%",
"%%$                          %%%",
"%% *****OOOOO******OOOOO***** %%",
"%% ***=*O&&&O**==**O&&&O*=*** %%",
"%% ***=*O&&&O**==**O&&&O*=*** %%",
"$$ *****OOOOO******OOOOO***** %%",
"$$ *****oOOOo******oOOOo***** %%",
"$$ *****ooooo******ooooo***** %%",
"$$ *****ooooo******ooooo***** %%",
"%$ *****ooooo******ooooo***** %%",
"%$ *****..XXX*===#*XXX..***** %%",
"$$ ******==**#@  @#*==******* %%",
"$$ *********#*    *#********* %%",
"$$ *********#*    *#********* %%",
"%%% **.XXXXX#*@  @*#XXXXX.** $%%",
"%%% **XXXXXXX#*  *#XXXXXXX** $%%",
"%%% **XXXXXXX#*  *#XXXXXXX** $$%",
"%%% **XooooooX#**#XooooooX** $$%",
"%%% **XooooooX####XooooooX** +$%",
"%%% **XoooooooXXXXoooooooX** +$%",
"%%% ************************ $$%",
"%++ ************************ %%%",
"%+++                        $%%%",
"%%+++$$$%%%%%%+++%%%%%%$$$$$$%%%",
"%%%++$$$%%%%%++++%%%%%%$$$$$$%%%",
"%%%$$$$$%%%%%++%%%%%%%%%%%%%%%%%",
"%%%%%%%%%%%%%%%%%%%%%%%%%%%%%%%%"
};
