/* XPM */
static char *b69b07e4630b4293f6d522ff882f58d4SsEQS0B94wUX2CNk[] = {
/* columns rows colors chars-per-pixel */
"32 32 7 1 ",
"  c #271513",
". c #332826",
"X c #5F3D31",
"o c #58403C",
"O c #6D4034",
"+ c #734136",
"@ c #5C4C4D",
/* pixels */
"++++++++++++++++++++++++++++++++",
"++++  +       ++++++++++++++++++",
"+++     ooo@@   +++++       ++++",
"++  oooooooooo@       oo@@@   ++",
"++  ooooooooooo@@.....ooooo@  ++",
"++ oooooooooooooo@....oooooo@ ++",
"++ ooooooooooooooo@...oooooo@ ++",
"++ oooooooooooooooo....ooooo@ ++",
"++ ooooooooooooooo@....ooooo.  +",
"++ ooooooooooooooo@.....oo.... +",
"OO oooooooooooooo@............ +",
"OOO ooooooooooooo............. +",
"OOO oooooooooooo@............. +",
"OOO oooooooooooo@............  +",
"+OO oooooooooooo............. ++",
"+OO ooooooooooo@............. ++",
"OOO  oooooooooo@............. ++",
"OOO  oooooooooo@............. ++",
"OOO oooooooooo@..............  +",
"++  oooooooooo................ +",
"++ ooooooooo@..........o...... +",
"++ ooooooo@@.........o..oo.o.. +",
"++  o.oooo............ooooo..  +",
"+++ ................ooooooo.  O+",
"++  .................ooooooo XO+",
"++ .....o.o........o.ooooooo OO+",
"+X ......o.o..........oooooo +++",
"+X  .........    ....o..o    +++",
"++X  ....           ...   OOO+++",
"+++X     ++++XXXX+++    OOOOO+++",
"+++OOOOO+++++XX+++++++++++++++++",
"++++++++++++++++++++++++++++++++"
};
