/* XPM */
static char *_bb0781b7de14d29b596fd17c6aa8a8bFCRU920QLy88PMD4[] = {
/* columns rows colors chars-per-pixel */
"32 32 6 1 ",
"  c black",
". c #5F3D31",
"X c #6D4034",
"o c #734136",
"O c #6D6A6A",
"+ c gray50",
/* pixels */
"oooooooooooooooooooooooooooooooo",
"oooooooooooooooooooooooooooooooo",
"oooooooooooooooooooooooooooooooo",
"ooooooooooo........ooooooXXXoooo",
"oooXXXooooo........oooooXXXXoooo",
"oooXXXXoooo........oooooXXXXoooo",
"ooXXXXXXooooooooooooo..XXXXXoooo",
"ooXXXXXXXXooooooooo....XXXXXXooo",
"ooXXXXXXXXXXooooooX...XXXXXXXooo",
"ooXXXX..XXXXoooo..XXXXXXXXXXXooo",
"XXXX....XXXXXooo..XXXXoXXXXXXooo",
"XXXX...XXXXXXXXo...ooo....XXXXoo",
"XXXX..XXXoXXXXX    ooo....XXXXoo",
"XXXXXXXXXoXXXX OOOO oo..XXXXXXoo",
"oXXXXooooooXX +++++O ooXXXoooooo",
"oXXXooXXXXXX +++  ++O oXXXXooooo",
"XXXXooXXXXXX ++ XX ++ ...XXooooo",
"XXXXooXXXXXX +++  O++ .....ooooo",
"XXXoooooooXXX +++++O ooX...ooooo",
"ooooo....ooooX +++O .ooooooXXXoo",
"ooooo.....ooooX +O XXXXXoooXXXoo",
"ooooo.....oooXX +O XXXXXoooXXXXo",
"ooooo.....oooXX +O XX...Xoo..XXo",
"ooooo.....oooX ++O XX...Xoo...Xo",
"oooooooooooooXX +O XXX..Xooo..Xo",
"oooooooooooooo  +O XXXXXooooXXXo",
"o...ooooooooo +++O ooooooooooooo",
"o....ooooooooo  OO ooooXXXXXXooo",
"oo...XXXoooooo..  oooooXXXXXXooo",
"ooo..XXXooooo....ooooooXXXXXXooo",
"oooXXXXXooooo..ooooooooooooooooo",
"oooooooooooooooooooooooooooooooo"
};
