/* XPM */
static char *_f1ed23066e7417cee26e6a5328a9259PDPq86zmm83FbNcN[] = {
/* columns rows colors chars-per-pixel */
"32 32 3 1 ",
"  c #5F3D31",
". c #6D4034",
"X c #734136",
/* pixels */
"XXXXXXXXXXXXXXXXXXXXXXXXXXXXXXXX",
"XXXXXXXXXXXXXXXXXXXXXXXXXXXXXXXX",
"XXXXXXXXXXXXXXXXXXXXXXXXXXXXXXXX",
"XXXXXXXXXXX        XXXXXX...XXXX",
"XXX...XXXXX        XXXXX....XXXX",
"XXX....XXXX        XXXXX....XXXX",
"XX......XXXXXXXXXXXXX  .....XXXX",
"XX........XXXXXXXXX    ......XXX",
"XX..........XXXXXX.   .......XXX",
"XX....  ....XXXX  ...........XXX",
"....    .....XXX  ....X......XXX",
"....   ........X   XXX    ....XX",
"....  ...X......XXXXXX    ....XX",
".........X........XXXX  ......XX",
"X....XXXXXX.......XXXXX...XXXXXX",
"X...XX............XXXXX....XXXXX",
"....XX............XXXX   ..XXXXX",
"....XX.........   XXXX     XXXXX",
"...XXXXXXX.....      XX.   XXXXX",
"XXXXX    XXXX...X    XXXXXX...XX",
"XXXXX     XXXX..........XXX...XX",
"XXXXX     XXX...........XXX....X",
"XXXXX     XXX........   .XX  ..X",
"XXXXX     XXX...X....   .XX   .X",
"XXXXXXXXXXXXX...X.....  .XXX  .X",
"XXXXXXXXXXXXXXXXX.......XXXX...X",
"X   XXXXXXXXXXXXXXXXXXXXXXXXXXXX",
"X    XXXXXXXXXXXXXXXXXX......XXX",
"XX   ...XXXXXX   XXXXXX......XXX",
"XXX  ...XXXXX    XXXXXX......XXX",
"XXX.....XXXXX  XXXXXXXXXXXXXXXXX",
"XXXXXXXXXXXXXXXXXXXXXXXXXXXXXXXX"
};
