/* XPM */
static char *_d0dcce89ff34051c741d5ad9e9f4742SlwSYHXNYGue1eTs[] = {
/* columns rows colors chars-per-pixel */
"32 32 10 1 ",
"  c black",
". c #5F3D31",
"X c #6D4034",
"o c #734136",
"O c #B97371",
"+ c #68989C",
"@ c #CF9C9B",
"# c #9CC8CD",
"$ c #E3C6C5",
"% c white",
/* pixels */
"oooooooooooooooooooooooooooooooo",
"oooooooooooooooooooooooooooooooo",
"oooooooooooooooooooooooooooooooo",
"ooooooooooo........ooooooXXXoooo",
"oooXXXooooo........oooooXXXXoooo",
"oooXXXXoooo.        ooooXXXXoooo",
"ooXXXXXXoo  @@@@@@@@  .XXXXXoooo",
"ooXXXXXXX @@$$$$$$$$@@ XXXXXXooo",
"ooXXXXXX @$$$$$$$$$$$$@ XXXXXooo",
"ooXXXX. @$$$$$$$$$$$$$$@ XXXXooo",
"XXXX... $$%%  $$$$%%  $$ XXXXooo",
"XXXX.. @$$%%  $$$$%%  $$@ XXXXoo",
"XXXX.. @$$    $$$$    $$@ XXXXoo",
"XXXXXX @$$    $$$$    $$@ XXXXoo",
"oXXXXo @$$####$$$$####$$@ oooooo",
"oXXXoo @$$####    ####$$@ Xooooo",
"XXXXooX $$###      ###$$ XXooooo",
"XXXXooX @$### %%%% ###$@ ..ooooo",
"XXXooooo @###$$$$$$###@ ...ooooo",
"ooooo.... ++#$$$$$$#++ ooooXXXoo",
"ooooo.....  +@@@@@@+  XXoooXXXoo",
"ooooo.....oo        XXXXoooXXXXo",
"ooooo.....o  OO@@OO  ...Xoo..XXo",
"ooooo..... O@@@@@@@@O ..Xoo...Xo",
"ooooooooo @$$@@@@@@$$@ .Xooo..Xo",
"ooooooooo $$$$$@@$$$$$ XooooXXXo",
"o...oooo @$$$$$$$$$$$$@ oooooooo",
"o....ooo @$  $$$$$$  $@ XXXXXooo",
"oo...XXX     $$  $$     XXXXXooo",
"ooo..XXXoooo $$  $$ oooXXXXXXooo",
"oooXXXXXoooo        oooooooooooo",
"oooooooooooooooooooooooooooooooo"
};
